Coordinates
version=1
nRows=14
nColumns=42
inDegrees=yes

Units are S.I. units (second, meters, Newtons, ...)
If the header above contains a line with 'inDegrees', this indicates whether rotational values are in degrees (yes) or radians (no).

endheader
time	pelvis_tilt	pelvis_list	pelvis_rotation	pelvis_tx	pelvis_ty	pelvis_tz	hip_flexion_r	hip_adduction_r	hip_rotation_r	knee_angle_r	knee_adduction_r	knee_angle_r_beta	ankle_angle_r	subtalar_angle_r	mtp_angle_r	hip_flexion_l	hip_adduction_l	hip_rotation_l	knee_angle_l	knee_adduction_l	knee_angle_l_beta	ankle_angle_l	subtalar_angle_l	mtp_angle_l	lumbar_extension	lumbar_bending	lumbar_rotation	arm_flex_r	arm_add_r	arm_rot_r	elbow_flex_r	pro_sup_r	wrist_flex_r	wrist_dev_r	arm_flex_l	arm_add_l	arm_rot_l	elbow_flex_l	pro_sup_l	wrist_flex_l	wrist_dev_l
      1.76000000	      8.78600038	     -0.36442838	      0.45900216	      1.43890446	      0.92184589	     -0.26469701	     21.61045630	      1.42954547	    -16.94187238	     21.53910387	     -5.25298213	      0.37592828	     10.08480411	     13.91783289	     -7.50592387	    -29.20990676	     -0.59167403	    -21.08903254	     21.68338127	     -6.01669373	      0.37844640	     15.08666328	     31.96899921	     -7.50592387	    -21.03631739	      1.93415852	     -8.02508779	    -10.24189616	     -5.36059920	     -1.11764314	     28.51819801	     90.00000001	      0.00000000	      0.00000000	      5.94247894	    -16.85749516	     -6.21543688	     57.99759074	     90.00000001	      0.00000000	      0.00000000
      1.77000000	      8.91997774	     -0.96712479	     -0.01850219	      1.45645299	      0.92289781	     -0.26266004	     21.19339466	      2.44205809	    -14.99843956	     23.21823628	     -5.11259780	      0.40523467	      9.48585279	     11.33789562	     -7.50557329	    -29.13777790	     -1.04174362	    -20.10951676	     23.91153111	     -6.20433752	      0.41733495	     12.06090745	     28.94567491	     -7.50557329	    -21.08259412	      2.49637871	     -7.61821786	     -9.70824357	     -5.64879172	     -0.84039854	     28.36768107	     90.00000001	      0.00000000	      0.00000000	      4.88914810	    -16.22868635	     -7.16972607	     58.18881072	     90.00000001	      0.00000000	      0.00000000
      1.78000000	      9.25229530	     -1.60473268	     -0.47938994	      1.47383947	      0.92439998	     -0.26051581	     20.62475864	      3.34129246	    -14.11493634	     25.04048238	     -5.09533572	      0.43703886	      9.68618306	     11.09354717	     -7.50552893	    -28.91792529	     -1.70566523	    -19.95009565	     26.69366289	     -6.53448194	      0.46589231	     10.25942647	     27.99846527	     -7.50552893	    -21.38040743	      3.04743877	     -7.04344367	     -9.23513686	     -5.84886224	     -0.82087824	     28.44046752	     90.00000001	      0.00000000	      0.00000000	      4.06662699	    -15.87856092	     -7.19004665	     57.95158064	     90.00000001	      0.00000000	      0.00000000
      1.79000000	      9.51067350	     -2.19526990	     -1.03431326	      1.49090588	      0.92655475	     -0.25849545	     19.71746032	      4.36848235	    -11.80246992	     26.19268958	     -4.65738228	      0.45714867	      9.75453541	      7.98769758	     -7.50510453	    -28.44704561	     -2.04492713	    -18.83720565	     29.65734721	     -6.76739056	      0.51761836	      6.79747131	     22.76373147	     -7.50510453	    -21.64048288	      3.55158498	     -6.54382610	     -8.58289942	     -6.16803903	     -0.49885071	     28.30500228	     90.00000001	      0.00000000	      0.00000000	      3.05258060	    -15.20797139	     -7.87013366	     57.82206204	     90.00000001	      0.00000000	      0.00000000
      1.80000000	      9.77276021	     -2.77511737	     -1.52686396	      1.50761976	      0.92880104	     -0.25643721	     18.80864446	      5.24293377	    -10.67113912	     27.27287458	     -4.45516420	      0.47600146	     10.50969543	      7.48056821	     -7.50498292	    -27.54372519	     -2.65027515	    -18.98773053	     33.15570909	     -7.36260976	      0.57867629	      4.72762445	     20.66330987	     -7.50498292	    -21.94519215	      3.99680644	     -6.00334933	     -7.95191240	     -6.39598563	     -0.42675189	     28.35434525	     90.00000001	      0.00000000	      0.00000000	      2.13054474	    -14.74754064	     -7.98418928	     57.52311188	     90.00000001	      0.00000000	      0.00000000
      1.81000000	      9.96346785	     -3.21684120	     -1.99615888	      1.52385641	      0.93152247	     -0.25447558	     17.69676386	      5.96578726	     -9.10432462	     27.85536855	     -3.99685778	      0.48616790	     11.02521774	      5.99343532	     -7.50464077	    -26.42161058	     -3.03477478	    -17.94663948	     36.77692914	     -7.42578138	      0.64187850	      2.82053478	     16.40965282	     -7.50464077	    -22.22192655	      4.27324783	     -5.56530287	     -7.20066700	     -6.56513547	     -0.15788962	     28.22556798	     90.00000001	      0.00000000	      0.00000000	      1.29308225	    -14.19114562	     -8.42047315	     57.01535217	     90.00000001	      0.00000000	      0.00000000
      1.82000000	     10.08530190	     -3.61743109	     -2.41615690	      1.53970227	      0.93432658	     -0.25258575	     16.55943262	      6.60074092	     -8.29959612	     28.13596504	     -3.80928521	      0.49106523	     11.88035926	      5.72803617	     -7.50431371	    -24.93524487	     -3.51529345	    -17.60386124	     40.56975489	     -7.75301819	      0.70807580	      1.61265091	     13.19833274	     -7.50431371	    -22.44503851	      4.49168076	     -5.10315887	     -6.50379245	     -6.71189963	      0.06652345	     28.25435518	     90.00000001	      0.00000000	      0.00000000	      0.49017490	    -13.68863290	     -8.52477318	     56.40105911	     90.00000001	      0.00000000	      0.00000000
      1.83000000	     10.13324058	     -3.90507053	     -2.80820252	      1.55517982	      0.93728140	     -0.25082445	     15.39096111	      7.05776412	     -7.88215773	     28.13896489	     -3.72670044	      0.49111759	     12.83541990	      6.09832731	     -7.50406938	    -23.18859542	     -3.89996736	    -17.46143754	     44.28188354	     -8.21523196	      0.77286467	      0.78929094	     10.19462563	     -7.50406938	    -22.60848088	      4.57122105	     -4.67252190	     -5.77357680	     -6.83801662	      0.28269368	     28.25841034	     90.00000001	      0.00000000	      0.00000000	     -0.21180308	    -13.25328011	     -8.55661104	     55.59100792	     90.00000001	      0.00000000	      0.00000000
      1.84000000	     10.16219511	     -4.16465182	     -3.15299011	      1.57038980	      0.94040341	     -0.24908997	     14.09612016	      7.49235250	     -7.66150216	     27.80798456	     -3.77070493	      0.48534089	     13.75745021	      6.62905410	     -7.50396394	    -21.31130119	     -4.34392612	    -17.72796671	     47.76142155	     -8.87149195	      0.83359406	      0.75279715	      8.30806906	     -7.50396394	    -22.75584068	      4.60196028	     -4.19591557	     -5.11072730	     -6.92318573	      0.40736594	     28.41123566	     90.00000001	      0.00000000	      0.00000000	     -0.90928956	    -12.83081132	     -8.44525294	     54.87241326	     90.00000001	      0.00000000	      0.00000000
      1.85000000	     10.19912160	     -4.16344667	     -3.44849234	      1.58535004	      0.94385974	     -0.24768873	     12.78502312	      7.51215336	     -7.86681878	     27.38212572	     -3.83193689	      0.47790825	     14.77139039	      7.93115267	     -7.50369394	    -19.40464486	     -4.38766201	    -17.20652258	     50.89520711	     -9.08994106	      0.88828894	      0.33467327	      4.64639624	     -7.50369394	    -22.87824648	      4.37402259	     -3.84105454	     -4.38031619	     -7.01298053	      0.79863681	     28.42112702	     90.00000001	      0.00000000	      0.00000000	     -1.34099769	    -12.38746082	     -8.30015155	     53.54522790	     90.00000001	      0.00000000	      0.00000000
      1.86000000	     10.18310969	     -4.16090161	     -3.72967261	      1.60017080	      0.94733418	     -0.24623053	     11.36659231	      7.57762743	     -7.74874303	     26.63862181	     -3.82588319	      0.46493166	     15.53000175	      8.57493835	     -7.50361685	    -17.34463704	     -4.55551963	    -17.80310497	     53.64356358	     -9.96528983	      0.93625681	      0.88911511	      3.42492461	     -7.50361685	    -22.94259025	      4.11696236	     -3.48237056	     -3.73682493	     -7.06508531	      0.90203396	     28.68551096	     90.00000001	      0.00000000	      0.00000000	     -1.99838283	    -12.03430821	     -8.09307150	     52.67198774	     90.00000001	      0.00000000	      0.00000000
      1.87000000	     10.12797285	     -3.92904850	     -4.04092912	      1.61476690	      0.95092814	     -0.24501355	     10.07149870	      7.28029960	     -7.99422566	     25.96472983	     -3.83938984	      0.45317002	     16.43984514	     10.11091954	     -7.50341039	    -15.21651149	     -4.37560673	    -18.15918710	     55.96400324	    -10.68359436	      0.97675612	      1.06828495	      1.24929878	     -7.50341039	    -22.92602364	      3.61487260	     -2.99963735	     -3.11653791	     -7.15882368	      1.24589042	     28.85661444	     90.00000001	      0.00000000	      0.00000000	     -2.13777421	    -11.67571431	     -7.65441536	     50.83195193	     90.00000001	      0.00000000	      0.00000000
      1.88000000	     10.05941689	     -3.65135859	     -4.35654202	      1.62925518	      0.95452740	     -0.24381357	      8.70497704	      6.98623692	     -7.94638586	     25.10063596	     -3.85398284	      0.43808874	     17.13122863	     11.20093619	     -7.50325660	    -13.06003480	     -4.15544653	    -18.87897133	     57.84501035	    -11.61382372	      1.00958589	      1.74323289	      0.16898978	     -7.50325660	    -22.87692605	      3.05985493	     -2.59125711	     -2.49086101	     -7.25708820	      1.45199806	     29.21954326	     90.00000001	      0.00000000	      0.00000000	     -2.51979312	    -11.34293102	     -7.26731620	     49.42872004	     90.00000001	      0.00000000	      0.00000000
      1.89000000	      9.95559151	     -3.31849742	     -4.67907452	      1.64361936	      0.95809615	     -0.24268033	      7.35677097	      6.59778374	     -7.87630440	     24.14049000	     -3.81038151	      0.42133103	     17.72026716	     12.28000705	     -7.50310627	    -10.86631757	     -3.88467613	    -19.70957888	     59.30363485	    -12.51943681	      1.03504369	      2.53259276	     -0.59262476	     -7.50310627	    -22.77693062	      2.44685528	     -2.16937688	     -1.87488438	     -7.36534092	      1.66505408	     29.65986910	     90.00000001	      0.00000000	      0.00000000	     -2.81398944	    -11.05925612	     -6.82003750	     47.84305021	     90.00000001	      0.00000000	      0.00000000
